<svg xmlns="http://www.w3.org/2000/svg" width="46.688" height="42.782" viewBox="0 0 46.688 42.782">
  <metadata><?xpacket begin="﻿" id="W5M0MpCehiHzreSzNTczkc9d"?>
<x:xmpmeta xmlns:x="adobe:ns:meta/" x:xmptk="Adobe XMP Core 5.6-c142 79.160924, 2017/07/13-01:06:39        ">
   <rdf:RDF xmlns:rdf="http://www.w3.org/1999/02/22-rdf-syntax-ns#">
      <rdf:Description rdf:about=""/>
   </rdf:RDF>
</x:xmpmeta>
                                                                                                    
                                                                                                    
                                                                                                    
                                                                                                    
                                                                                                    
                                                                                                    
                                                                                                    
                                                                                                    
                                                                                                    
                                                                                                    
                                                                                                    
                                                                                                    
                                                                                                    
                                                                                                    
                                                                                                    
                                                                                                    
                                                                                                    
                                                                                                    
                                                                                                    
                                                                                                    
                           
<?xpacket end="w"?></metadata>
<defs>
    <style>
      .cls-1 {
        fill: #262626;
        fill-rule: evenodd;
      }
    </style>
  </defs>
  <path id="truck.svg" class="cls-1" d="M163.064,107.006a2.666,2.666,0,0,0-2.092-1.015H133.855a2.664,2.664,0,0,0-2.538,3.478l4.991,15.607a1.658,1.658,0,0,0,1.579,1.154h20.3a1.659,1.659,0,0,0,1.612-1.271l3.761-15.68A2.67,2.67,0,0,0,163.064,107.006Zm-0.641,22.178H136.236a2.127,2.127,0,0,1-2.029-1.477L127,105.355a5.076,5.076,0,0,0-4.845-3.532h-1.576a2.429,2.429,0,0,0,0,4.857h1.576a0.236,0.236,0,0,1,.225.164l7.208,22.352a6.969,6.969,0,0,0,6.65,4.845h26.187A2.429,2.429,0,0,0,162.423,129.184Zm-24.466,7.653a3.873,3.873,0,1,0,3.871,3.873A3.872,3.872,0,0,0,137.957,136.837Zm20.329,0a3.873,3.873,0,1,0,3.871,3.873A3.872,3.872,0,0,0,158.286,136.837Z" transform="translate(-118.156 -101.812)"/>
</svg>
